<?xml version="1.0" encoding="UTF-8"?>
<!DOCTYPE svg  PUBLIC '-//W3C//DTD SVG 20010904//EN'  'http://www.w3.org/TR/2001/REC-SVG-20010904/DTD/svg10.dtd'>
<svg width="6.6667in" height="6.6667in" viewBox="0 0 2e3 2e3" xmlns="http://www.w3.org/2000/svg">
<path d="m923 843-4-14h2l-0.94-11-4.06-12s-3 1-3 1l-3-6 56-2 15 1c8.28 0.09 24.42 0.44 32-1.12 0 0 15.04-5.26 15.04-5.26l12.96-3.57c4.86-1.83 6.55-3.84 10.09-5.54 0 0 15.91-6.12 15.91-6.12s14-6.76 14-6.76l30-12.58 10.72-6.05c3.64-2.42 4.59-4.1 9.28-6.49l27-13.2 11-4.58 15-9.28 13-6.77 10-6.05 35-16.23 22-12.38 24-11.2 22-11.12s18-6.06 18-6.06l35-17.08 33-15.69 12-4.32 33.04-14.37 21.96-11.36 13.58-5.8 27.42-12.83c2.96-1.83 7.09-3.72 8-7.19h8s10.74-9.03 10.74-9.03 3.71-4.43 3.71-4.43l5.06-3.83s5.49-6.71 5.49-6.71l-1-2s3-1 3-1c0.69-5.47 2.85-7.15 5.19-12l6.02-14c2.32-4.13 4.55-5.92 5.46-11l1.28-47v-80-13l-1.95-21c-0.21-18.16 2.25-44.67-5.49-61-2.26-4.78-3.16-9.98-7.56-13.36-5.37-4.13-14.37-4.63-20.95-4.64h-177-81l-16-1-9 0.66-9-0.66h-50l-13 0.96-12-0.95-14 0.95-15-0.96h-22s-14 0.83-14 0.83h-9-26s-17-0.83-17-0.83h-70l-12-0.97h-13-108l-15-1.03h-125l-15-1h-111l-17-1h-58c-4.76 0.01-17.88 0.99-22 2.56-14.57 5.56-15.35 20.3-16.08 33.44l-1.47 22-2.28 17v10.74l-1.17 23.26v29l-1 17v59l-1 25-1 26v54l-1 15v91 65l-1 17v43l-1 17v53l-1 15v231 94l-1 15v134l-1 15v109l-1 17 0.85 24v69l0.82 11c0.05 7.13-1.31 11.74 2.16 19 3.99 8.35 16.76 19.9 25.17 23.65l12 4.16c10.83 4.23 9.8 6.71 22 10.15l43 4.17h30 32 10.58 9.42 18l15-1.13 27-2h9c21.34-1.55 47.15-4.98 68-9.58 0 0 19-2.32 19-2.32 6.53-2.01 26.17-11.13 31.83-15.01l11.17-8.49 7.99-4.66 17.99-13.38c5.63-4.89 4.49-5.75 8.28-10.56l11.16-13s20.28-24 20.28-24l6-11c6.16-10.17 13.12-19.97 17.78-30.96l2.43-7.13c4.78-12.07 12.06-13.3 12.09-31.91v-69l1-17 1-31 1-13 1-19-1-22v-41l0.7-12-0.7-12v-118l-1-17v-31l0.92-13-0.92-11v-76l-1-17v-25l-0.83-20c0.59-12.63 0.42-30.81-2.4-43-2.23-9.61-4.05-27.17-13.77-32zm438-393-2 1v-2c-26.39 7.87-41.67 34.27-65 47.66l-23 13.03-13 8.99-8 4.42-10 7.02-17 8.14-13 8.12-9.96 5.09-7.13 5.31-38.91 24.89-30 15.02-9.96 4-12.03 8.18-25.01 11.82-28 8.77-10 3.64-14 2.87c-12.04 3.6-16.49 7.01-30 7.03h-23s-30-4.45-30-4.45-10.92-3.27-10.92-3.27-7.12-0.98-7.12-0.98l-10.96-2.93c-14.52-3.67-43.78-9.23-55.96-16.41l-9.21-7.01s-13.83-7.93-13.83-7.93l-7-4.81-26.17-13.85-7.83-6.46-21.92-16.79-7.09-6.01-15.99-10.14-11-8.71-9.71-5.69-12.47-12.14c-9.8-7.96-23.61-12.9-34.82-18.82-12.45-6.57-29.29-22.27-44-15.32-3.36 1.59-5.82 3.54-7.78 6.74-1.45 2.36-2.36 5.27-2.93 7.98-1.06 4.96-1.28 7.97-1.29 13v65l0.96 10v10c0.14 7.98 2.14 12.23 2.95 19v14l1.04 18-0.95 16v24l-1 13v7l-1 15v6s-0.68 10-0.68 10l0.68 31v79l-1 15v123 222l1 17 2.02 41.91v23.09 7l0.9 12.72v35.28c0.12 7.47 1.8 33.91 3.93 40 1.47 4.21 4 6.28 5.89 10 1.84 3.61 1.79 6.18 4.59 9.83 9.03 11.77 23.24 12.74 36.67 14.45 14.36 1.84 28.52 5.02 43 2.64 9.49-1.56 18.12-2.24 24.35-10.93 3.46-4.82 3.97-11.27 4.86-16.99 1.51-9.07 0.62-17.94 0-27v-9-13-17l-1.21-15-0.97-11.99v-34.01l-3.9-24c-1.24-8.28-1.05-16.64-1.13-25l-0.94-11.17v-12.83l-1.06-17v-16l-1-23v-28l-1-16v-65l-1-17v-30l-1-15v-182l-1-17v-19l-1-18c0.01-4.1-0.63-10.41 5.04-10.75 4.83-0.29 13.7 5.83 17.96 8.25 7.15 4.06 15.59 7.97 22 13.02l9 8.11c8.14 6.62 13.79 8.6 12.88 20.38l-3.44 15.99s-0.73 8-0.73 8l-1.75 11v8l-2.96 24-2 35v29l-1 15v169s-0.68 10-0.68 10c-0.26 3.45 0.41 4.82 0.59 8l-0.73 10 0.8 12v17 16l-0.98 14v54l1 16v20s-0.68 10-0.68 10l0.68 38-0.97 12 0.97 14v25l1 32c-0.01 8.5-3.5 32.21-6.05 40l-4.68 10-8.94 24-11.46 27.96c-2.45 3.7-6.48 6.38-9.54 10.04l-7.66 10.91-28.62 25.94c-5.43 4.44-16.48 12.83-23.05 14.6-10.87 2.93-30.1 0.74-41-2.04-4.02-1.03-18.99-7.25-23-9.3-8.65-4.44-21.61-11.17-27.33-19.15-10.69-14.91-13.69-34.11-15.82-51.96l-1.85-25.01v-16.99l-1-10v-26l0.87-12v-11.58-10.42-33l1.13-15v-166l-1-20-1-19v-101l-1-17v-35l1-21v-85l1-17v-44l0.96-17v-16l-0.92-13 0.92-8v-13l1.04-15v-128l1-15v-30l0.99-15-0.64-9.58s0.65-9.42 0.65-9.42v-25l0.96-11-0.53-16.42c0.62-5.57 0.69-13.76 4.99-17.86 4.1-3.92 12.21-3.71 17.58-3.68h16l10 0.96 24-1.18 17-1.85h13.58 45.42l28-1.97h22l12-0.91 25-1.09 45-3.88h13 33 25l11-1.12h196 85l17 0.89h23 27c10.71 0.09 14.69-1.83 27 0 0 0 37 8.02 37 8.02l25-2.91h10l10-0.68c3.66-0.27 10.81 0.74 13.55 3.32 4.87 4.57 1.94 14.08-1.76 18.34-8.65 9.97-18.08 9.61-29.79 11.32-5.76 0.84-6.37 2.21-13.42 2.52-5.33 0.23-12.5 1.3-15.58-3.82zm178 92v1l-1-1h1zm-1 1v1l-1-1h1zm-1 1v1l-1-1h1zm-7 6v1l-1-1h1zm-1 1v1l-1-1h1zm-15 34c-5.23 0.86-14.48 7.69-18.54 11.37l-6.55 5.97c-4.12 2.83-8.69 3.13-9.91 8.66-2.87 0.81-10.55 3.43-12.82 4.99-4.13 2.85-3.93 5.67-13.17 11.78l-9.04 4.67-11.97 10.28-10 6.74-7 5.84-22 14-14 6.14c-7.3 4.09-8.36 6.52-13 9.35l-19 9.33-28 15.45-27 13.12-16 7.2-23.02 12.2-9.99 6.72-28.99 11.37-16 9.31-8 3.33-39 18.78-16 5.8-16 10.53-19 6.73-20 5.57-11 4.45-18 3.26c-6.19 1.75-7.91 4.85-14 6.42l-10 2.38-13 4.57c-6.29 1.62-10.22 0.66-15.79 5.54-9.84 8.6-13.19 27.61-13.21 40.15v42l-1 17v32l1 20v13l1 14v131l1 17v54l1 15v122l2 33v19l1 13s3 37 3 37c0.02 8.08 0.84 24.19 5.08 30.91 4.58 7.25 21.86 15.17 29.92 18.4l12 4.56 8 3.68 16 3.66 18 4.05 10 0.87s17 3.18 17 3.18c10.45 2.01 16.63 9.3 30 10.37l25-0.68c12.37 0.02 23.18 3.66 32.89-7.62 3.76-4.36 5.26-16.67 5.01-22.38l-0.86-8s0.87-10 0.87-10l1.09-29 0.75-27v-10l1.25-22v-54-71l-1-17v-42l1-17v-67l-2-27v-95c0.16-18.8-3.85-22.9-4.05-35v-13l-0.95-14-1.02-24c-0.42-6.08-2.94-14.64 0.72-19.96 4.97-7.2 15.51-7.57 23.3-9.92 5.25-1.59 9.55-2.81 15-3.68l9-1.34 10-3.35 15-4.56 16-4.23c11.11-3.37 27.03-10.78 37-16.78l13.01-8.92 16.99-8.45c5.39-2.29 11.28-3.75 16-7.34l18.17-15.77 9.83-5.57 13.91-9.27 21.09-16.64c2.38-1.39 5.39-2.24 8-3.22l1.91 10v23s-3.73 38-3.73 38 1.73 20 1.73 20l-0.95 16v12l-0.96 12v77l-2 42-0.9 19.59v26.41l-2.1 32v34l-1 15v63l1 15v79l1.05 17v20.91l0.95 14.09 0.59 24v10 20.42 9.58 11.46s1.41 23.54 1.41 23.54l1 18v14l-3 16c-3.66 0.76-3.86 2.6-7.05 4-2.39 1.04-8.26 1.86-10.95 1.96-5.78 0.23-9.63-0.78-15-2.77-7.63-2.84-17.44-8.36-20.85-16.2-2.41-5.3-0.65-13.39 0-18.99v-9-8l1.85-18 3-51 1-15 3-63v-82l1-17v-33l1-17 1-23v-15l1-14v-11l1-11 1.09-21 0.91-12v-23l1-15v-19c-0.02-14.39-4.57-25.71-9.3-39-2.4-6.73-3.27-12.92-9.72-17.44-5.02-3.52-19.62-4.48-25.98-4.56l-22-0.88h-30.51c-6.53-0.01-10.39 1.88-16.49 3.51 0 0-21 5.4-21 5.4-4.36 1.38-9.32 3.15-12.01 7.07-3.79 5.52-4.96 24.78-4.99 31.9v58l-1 15v80l-0.94 19 0.94 13v17l-1 15v131l-1.21 17v22 6l-0.79 15v17l-1 18-1 15-1.08 26c0.09 8.65 2.21 15.27 0 24l-6.24 17-2.9 11c-1.38 5.07-0.99 11-3.87 19l-5.38 11c-2.27 5.34-4.61 21.48-2.88 27 1.25 4.01 6.52 9.86 9.44 13 8.85 9.5 22.52 17.4 34.91 21.48l13 3.71 14 3.43 9 3.22s36 6.58 36 6.58h23s28 3.58 28 3.58h65c12.16-0.02 19.58-2.07 31-5.26 0 0 11.8-3.03 11.8-3.03l9.2-7.2c4.3-3.21 11.87-6.99 17-8.62l18-6.37c8.36-2.69 12.81-1.02 17.87-10.52 6.59-12.39 10.11-38.83 10.13-53l-1.17-23-1.83-20 1-22v-27l1-15v-147-165l-1-17v-47l-1-17v-28l0.92-11-0.92-11-1-25v-22-24l0.91-16v-85-8s-0.91-99-0.91-99v-95c-0.02-13.48-0.67-26.86-4-40-0.9-3.57-1.27-7.83-3.09-11-6.13-10.71-16.14-7.06-25.91-5.11-4.95 0.99-11.88 2.93-15 7.11zm-592 213v1l-1-1h1zm215.91 129.44c10.54-0.52 9.19 9.84 9.77 17.56l-1.25 24.91 4.26 38.51 1.47 20.58v17 12l0.8 8v12l-0.96 16v19c0.02 14 3.53 13.55 4.17 24v33s2.95 34 2.95 34v19 9 11l-1.12 27v66c0.21 18.76 1.6 39.56-11.26 55-4.04 4.85-16.71 17.12-22.65 18.5-4.92 1.14-10.63 1.03-12.44-4.52-0.87-2.66-0.62-7.09-0.89-9.98v-10l2.81-18s1.43-21 1.43-21v-85l3-25v-35l1.04-15v-11l0.96-10 1-19-2-28-1-16v-18l-1-15 0.62-15v-32-6-7-7l-0.91-11c-0.05-5.33 2.36-20.33 3.49-26 2.57-12.84 1.92-33.32 17.71-37.56z" fill="none" stroke="#000"/>
</svg>
